<svg width="100%" height="100%" viewBox="0 0 1440 900" fill="none" xmlns="http://www.w3.org/2000/svg">
  <rect width="1440" height="900" fill="url(#paint0_linear)"/>
  <g opacity="0.35">
    <rect x="72" y="49" width="2" height="2" rx="1" fill="#60A5FA"/>
    <rect x="92" y="49" width="2" height="2" rx="1" fill="#60A5FA"/>
    <rect x="112" y="49" width="2" height="2" rx="1" fill="#60A5FA"/>
    <rect x="132" y="49" width="2" height="2" rx="1" fill="#60A5FA"/>
    <rect x="152" y="49" width="2" height="2" rx="1" fill="#60A5FA"/>
    <rect x="172" y="49" width="2" height="2" rx="1" fill="#60A5FA"/>
    <rect x="192" y="49" width="2" height="2" rx="1" fill="#60A5FA"/>
    <rect x="212" y="49" width="2" height="2" rx="1" fill="#60A5FA"/>
    <rect x="232" y="49" width="2" height="2" rx="1" fill="#60A5FA"/>
    <rect x="252" y="49" width="2" height="2" rx="1" fill="#60A5FA"/>
    <rect x="272" y="49" width="2" height="2" rx="1" fill="#60A5FA"/>
    <rect x="292" y="49" width="2" height="2" rx="1" fill="#60A5FA"/>
    <rect x="312" y="49" width="2" height="2" rx="1" fill="#60A5FA"/>
    <rect x="332" y="49" width="2" height="2" rx="1" fill="#60A5FA"/>
    <rect x="352" y="49" width="2" height="2" rx="1" fill="#60A5FA"/>
    <rect x="372" y="49" width="2" height="2" rx="1" fill="#60A5FA"/>
    <rect x="392" y="49" width="2" height="2" rx="1" fill="#60A5FA"/>
    <rect x="412" y="49" width="2" height="2" rx="1" fill="#60A5FA"/>
    <rect x="432" y="49" width="2" height="2" rx="1" fill="#60A5FA"/>
    <rect x="452" y="49" width="2" height="2" rx="1" fill="#60A5FA"/>
    <rect x="472" y="49" width="2" height="2" rx="1" fill="#60A5FA"/>
    <rect x="492" y="49" width="2" height="2" rx="1" fill="#60A5FA"/>
    <rect x="512" y="49" width="2" height="2" rx="1" fill="#60A5FA"/>
    <rect x="532" y="49" width="2" height="2" rx="1" fill="#60A5FA"/>
    <rect x="552" y="49" width="2" height="2" rx="1" fill="#60A5FA"/>
    <rect x="572" y="49" width="2" height="2" rx="1" fill="#60A5FA"/>
    <rect x="72" y="74" width="2" height="2" rx="1" fill="#60A5FA"/>
    <rect x="92" y="74" width="2" height="2" rx="1" fill="#60A5FA"/>
    <rect x="112" y="74" width="2" height="2" rx="1" fill="#60A5FA"/>
    <rect x="132" y="74" width="2" height="2" rx="1" fill="#60A5FA"/>
    <rect x="152" y="74" width="2" height="2" rx="1" fill="#60A5FA"/>
    <rect x="172" y="74" width="2" height="2" rx="1" fill="#60A5FA"/>
    <rect x="192" y="74" width="2" height="2" rx="1" fill="#60A5FA"/>
    <rect x="212" y="74" width="2" height="2" rx="1" fill="#60A5FA"/>
    <rect x="232" y="74" width="2" height="2" rx="1" fill="#60A5FA"/>
    <rect x="252" y="74" width="2" height="2" rx="1" fill="#60A5FA"/>
    <rect x="272" y="74" width="2" height="2" rx="1" fill="#60A5FA"/>
    <rect x="292" y="74" width="2" height="2" rx="1" fill="#60A5FA"/>
    <rect x="312" y="74" width="2" height="2" rx="1" fill="#60A5FA"/>
    <rect x="332" y="74" width="2" height="2" rx="1" fill="#60A5FA"/>
    <rect x="352" y="74" width="2" height="2" rx="1" fill="#60A5FA"/>
    <rect x="372" y="74" width="2" height="2" rx="1" fill="#60A5FA"/>
    <rect x="392" y="74" width="2" height="2" rx="1" fill="#60A5FA"/>
    <rect x="412" y="74" width="2" height="2" rx="1" fill="#60A5FA"/>
    <rect x="432" y="74" width="2" height="2" rx="1" fill="#60A5FA"/>
    <rect x="452" y="74" width="2" height="2" rx="1" fill="#60A5FA"/>
    <rect x="472" y="74" width="2" height="2" rx="1" fill="#60A5FA"/>
    <rect x="492" y="74" width="2" height="2" rx="1" fill="#60A5FA"/>
    <rect x="512" y="74" width="2" height="2" rx="1" fill="#60A5FA"/>
    <rect x="532" y="74" width="2" height="2" rx="1" fill="#60A5FA"/>
    <rect x="552" y="74" width="2" height="2" rx="1" fill="#60A5FA"/>
    <rect x="72" y="99" width="2" height="2" rx="1" fill="#60A5FA"/>
    <rect x="92" y="99" width="2" height="2" rx="1" fill="#60A5FA"/>
    <rect x="112" y="99" width="2" height="2" rx="1" fill="#60A5FA"/>
    <rect x="132" y="99" width="2" height="2" rx="1" fill="#60A5FA"/>
    <rect x="152" y="99" width="2" height="2" rx="1" fill="#60A5FA"/>
    <rect x="172" y="99" width="2" height="2" rx="1" fill="#60A5FA"/>
    <rect x="192" y="99" width="2" height="2" rx="1" fill="#60A5FA"/>
    <rect x="212" y="99" width="2" height="2" rx="1" fill="#60A5FA"/>
    <rect x="232" y="99" width="2" height="2" rx="1" fill="#60A5FA"/>
    <rect x="252" y="99" width="2" height="2" rx="1" fill="#60A5FA"/>
    <rect x="272" y="99" width="2" height="2" rx="1" fill="#60A5FA"/>
    <rect x="292" y="99" width="2" height="2" rx="1" fill="#60A5FA"/>
    <rect x="312" y="99" width="2" height="2" rx="1" fill="#60A5FA"/>
    <rect x="332" y="99" width="2" height="2" rx="1" fill="#60A5FA"/>
    <rect x="352" y="99" width="2" height="2" rx="1" fill="#60A5FA"/>
    <rect x="372" y="99" width="2" height="2" rx="1" fill="#60A5FA"/>
    <rect x="392" y="99" width="2" height="2" rx="1" fill="#60A5FA"/>
    <rect x="412" y="99" width="2" height="2" rx="1" fill="#60A5FA"/>
    <rect x="432" y="99" width="2" height="2" rx="1" fill="#60A5FA"/>
    <rect x="452" y="99" width="2" height="2" rx="1" fill="#60A5FA"/>
    <rect x="472" y="99" width="2" height="2" rx="1" fill="#60A5FA"/>
    <rect x="492" y="99" width="2" height="2" rx="1" fill="#60A5FA"/>
    <rect x="512" y="99" width="2" height="2" rx="1" fill="#60A5FA"/>
    <rect x="532" y="99" width="2" height="2" rx="1" fill="#60A5FA"/>
    <rect x="552" y="99" width="2" height="2" rx="1" fill="#60A5FA"/>
    <rect x="72" y="124" width="2" height="2" rx="1" fill="#60A5FA"/>
    <rect x="92" y="124" width="2" height="2" rx="1" fill="#60A5FA"/>
    <rect x="112" y="124" width="2" height="2" rx="1" fill="#60A5FA"/>
    <rect x="132" y="124" width="2" height="2" rx="1" fill="#60A5FA"/>
    <rect x="152" y="124" width="2" height="2" rx="1" fill="#60A5FA"/>
    <rect x="172" y="124" width="2" height="2" rx="1" fill="#60A5FA"/>
    <rect x="192" y="124" width="2" height="2" rx="1" fill="#60A5FA"/>
    <rect x="212" y="124" width="2" height="2" rx="1" fill="#60A5FA"/>
    <rect x="232" y="124" width="2" height="2" rx="1" fill="#60A5FA"/>
    <rect x="252" y="124" width="2" height="2" rx="1" fill="#60A5FA"/>
    <rect x="272" y="124" width="2" height="2" rx="1" fill="#60A5FA"/>
    <rect x="292" y="124" width="2" height="2" rx="1" fill="#60A5FA"/>
    <rect x="312" y="124" width="2" height="2" rx="1" fill="#60A5FA"/>
    <rect x="332" y="124" width="2" height="2" rx="1" fill="#60A5FA"/>
    <rect x="352" y="124" width="2" height="2" rx="1" fill="#60A5FA"/>
    <rect x="372" y="124" width="2" height="2" rx="1" fill="#60A5FA"/>
    <rect x="392" y="124" width="2" height="2" rx="1" fill="#60A5FA"/>
    <rect x="412" y="124" width="2" height="2" rx="1" fill="#60A5FA"/>
    <rect x="432" y="124" width="2" height="2" rx="1" fill="#60A5FA"/>
    <rect x="452" y="124" width="2" height="2" rx="1" fill="#60A5FA"/>
    <rect x="472" y="124" width="2" height="2" rx="1" fill="#60A5FA"/>
    <rect x="492" y="124" width="2" height="2" rx="1" fill="#60A5FA"/>
    <rect x="512" y="124" width="2" height="2" rx="1" fill="#60A5FA"/>
    <rect x="532" y="124" width="2" height="2" rx="1" fill="#60A5FA"/>
    <rect x="552" y="124" width="2" height="2" rx="1" fill="#60A5FA"/>
  </g>
  <defs>
    <linearGradient id="paint0_linear" x1="720" y1="0" x2="720" y2="900" gradientUnits="userSpaceOnUse">
      <stop stop-color="#111827"/>
      <stop offset="1" stop-color="#1F2937"/>
    </linearGradient>
  </defs>
</svg> 